<svg xmlns="http://www.w3.org/2000/svg" width="28" height="21" viewBox="0 0 28 21">
    <g fill="none" fill-rule="evenodd">
        <g fill="#000" stroke="#000">
            <g>
                <g>
                    <g>
                        <path fill-rule="nonzero" stroke-width=".3" d="M23.663 19.132H3.181c-1.303 0-2.363-1.06-2.363-2.364V12.83c0-.435.352-.787.788-.787 1.303 0 2.363-1.06 2.363-2.364 0-1.303-1.06-2.363-2.363-2.363-.436 0-.788-.352-.788-.788V2.588C.818 1.285 1.878.225 3.18.225h20.482c1.304 0 2.364 1.06 2.364 2.363v3.94c0 .435-.353.787-.788.787-1.303 0-2.363 1.06-2.363 2.363s1.06 2.364 2.363 2.364c.435 0 .788.352.788.787v3.94c0 1.302-1.06 2.363-2.364 2.363h0zm-21.27-5.594v3.23c0 .435.354.788.788.788h20.482c.435 0 .788-.353.788-.788v-3.23c-1.795-.366-3.151-1.957-3.151-3.86 0-1.902 1.356-3.493 3.151-3.86v-3.23c0-.434-.353-.788-.788-.788H3.181c-.434 0-.788.354-.788.788v3.23c1.796.367 3.152 1.958 3.152 3.86 0 1.903-1.356 3.494-3.152 3.86h0z" transform="translate(-263 -70) translate(0 46) translate(263.038 13.242) translate(0 11)"/>
                        <path d="M16.359 2.3H17.507V5.971H16.359zM16.359 9.281H17.507V12.952H16.359zM16.359 16.037H17.507V18.631999999999998H16.359z" transform="translate(-263 -70) translate(0 46) translate(263.038 13.242) translate(0 11)"/>
                    </g>
                </g>
            </g>
        </g>
    </g>
</svg>
